<svg xmlns="http://www.w3.org/2000/svg" width="240" height="81" fill="none"><path fill="#000" d="M53.691 32.255a4.047 4.047 0 0 1 0 5.723L24.978 66.69a4.047 4.047 0 0 1-5.723 0L1.185 48.62a4.047 4.047 0 0 1 0-5.722L29.9 14.185a4.047 4.047 0 0 1 5.723 0l18.07 18.07Z"/><path fill="#000" d="M60.435 37.978a4.047 4.047 0 0 0 0-5.723L47.15 18.968l4.783-4.783a4.047 4.047 0 0 1 5.723 0l18.07 18.07a4.047 4.047 0 0 1 0 5.723L47.01 66.69a4.047 4.047 0 0 1-5.723 0l-4.783-4.783 23.93-23.93Zm51.787 21.4c-3.492 0-6.678-.81-9.558-2.43-2.88-1.656-5.166-3.942-6.858-6.858-1.656-2.952-2.484-6.264-2.484-9.936 0-3.672.828-6.966 2.484-9.882 1.692-2.952 3.978-5.238 6.858-6.858 2.88-1.656 6.066-2.484 9.558-2.484 3.528 0 6.732.828 9.612 2.484 2.88 1.62 5.148 3.888 6.804 6.804 1.656 2.916 2.484 6.228 2.484 9.936s-.828 7.02-2.484 9.936c-1.656 2.916-3.924 5.202-6.804 6.858-2.88 1.62-6.084 2.43-9.612 2.43Zm0-4.266c2.628 0 4.986-.612 7.074-1.836 2.124-1.224 3.78-2.97 4.968-5.238 1.224-2.268 1.836-4.896 1.836-7.884 0-3.024-.612-5.652-1.836-7.884-1.188-2.268-2.826-4.014-4.914-5.238-2.088-1.224-4.464-1.836-7.128-1.836-2.664 0-5.04.612-7.128 1.836-2.088 1.224-3.744 2.97-4.968 5.238-1.188 2.232-1.782 4.86-1.782 7.884 0 2.988.594 5.616 1.782 7.884 1.224 2.268 2.88 4.014 4.968 5.238 2.124 1.224 4.5 1.836 7.128 1.836Zm30.301-20.898c.864-1.692 2.088-3.006 3.672-3.942 1.62-.936 3.582-1.404 5.886-1.404v5.076h-1.296c-5.508 0-8.262 2.988-8.262 8.964V59h-4.914V29.408h4.914v4.806Zm20.145.702c1.008-1.764 2.484-3.204 4.428-4.32s4.158-1.674 6.642-1.674c2.664 0 5.058.63 7.182 1.89 2.124 1.26 3.798 3.042 5.022 5.346 1.224 2.268 1.836 4.914 1.836 7.938 0 2.988-.612 5.652-1.836 7.992-1.224 2.34-2.916 4.158-5.076 5.454-2.124 1.296-4.5 1.944-7.128 1.944-2.556 0-4.806-.558-6.75-1.674-1.908-1.116-3.348-2.538-4.32-4.266V59h-4.914V19.04h4.914v15.876Zm20.088 9.18c0-2.232-.45-4.176-1.35-5.832-.9-1.656-2.124-2.916-3.672-3.78-1.512-.864-3.186-1.296-5.022-1.296-1.8 0-3.474.45-5.022 1.35-1.512.864-2.736 2.142-3.672 3.834-.9 1.656-1.35 3.582-1.35 5.778 0 2.232.45 4.194 1.35 5.886.936 1.656 2.16 2.934 3.672 3.834a10.136 10.136 0 0 0 5.022 1.296c1.836 0 3.51-.432 5.022-1.296 1.548-.9 2.772-2.178 3.672-3.834.9-1.692 1.35-3.672 1.35-5.94Zm33.738 6.534h-16.416L197.054 59h-5.184l13.608-37.422h5.67L224.702 59h-5.184l-3.024-8.37Zm-1.404-3.996-6.804-19.008-6.804 19.008h13.608Zm20.457-25.272V59h-4.914V21.362h4.914Z"/></svg>